PathFileType	4	(X/Y/Z)	walk-thru1-1-TP.trc
DataRate	CameraRate	NumFrames	NumMarkers	Units	OrigDataRate	OrigDataStartFrame	OrigNumFrames
120.00	120.00	       4	60	mm	120.00	283	       452
Frame#	Time	Top.Head			Front.Head			Rear.Head			Jaw			C7			R.Clavicle			L.Clavicle			R.Shoulder			L.Shoulder			R.Scapula			L.Scapula			R.Scap.Inf			R.Biceps.Lateral			R.Elbow			R.Elbow.Medial			R.Forearm			R.Ulna			R.Radius			R.Wrist			R.Thumb.M1			R.Thumb.M2			R.Thumb.M3			R.Finger3.M1			R.Finger3.M2			R.Finger3.M3			L.Biceps.Lateral			L.Elbow			L.Elbow.Medial			L.Forearm			L.Ulna			L.Radius			L.Wrist			L.Thumb.M1			L.Thumb.M2			L.Thumb.M3			L.Finger3.M1			L.Finger3.M2			L.Finger3.M3			V.Sacral			R.ASIS			L.ASIS			R.Thigh			R.Thigh.Front			R.Knee			R.Knee.Medial			R.Shank			R.Ankle			R.Ankle.Medial			R.Heel			R.Toe			R.MedFoot			L.Thigh			L.Knee			L.Knee.Medial			L.Shank			L.Ankle			L.Ankle.Medial			L.Heel			L.Toe			L.MedFoot			V_mid_ASIS			V_R_Knee_JC			V_L_Knee_JC			V_R_Elbow_JC			V_L_Elbow_JC			V_R_Ankle_JC			V_L_Ankle_JC			V_R_Wrist_JC			V_L_Wrist_JC			V_R_ScaTrpz_1stMC_JC			V_R_1stMC_1stPP_JC			V_R_1stPP_1stDP_JC			V_R_LunCap_3rdMC_JC			V_R_3rdMC_3rdPP_JC			V_R_3rdPP_3rdMP_JC			V_R_3rdMP_3rdDP_JC			V_L_ScaTrpz_1stMC_JC			V_L_1stMC_1stPP_JC			V_L_1stPP_1stDP_JC			V_L_LunCap_3rdMC_JC			V_L_3rdMC_3rdPP_JC			V_L_3rdPP_3rdMP_JC			V_L_3rdMP_3rdPP_JC			V_ROOT_JC			V_R_Hip_JC			V_L_Hip_JC			V_R_GlenHum_JC			V_L_GlenHum_JC			V_ForeHead_Ctr			V_Vertex			V_Sagit_Lambdoid_Suture			V_R_FrontoTemp			V_L_FrontoTemporal			V_R_ParietalOccip			V_L_ParietalOcciptal			V_R_Temporal			V_L_Temporal			V_mid_FrontRearHead			V_mid_RLGlenHumCtrs			V_C7_vert			V_C1_vert			V_Mid_Hip			
		X1	Y1	Z1	X2	Y2	Z2	X3	Y3	Z3	X4	Y4	Z4	X5	Y5	Z5	X6	Y6	Z6	X7	Y7	Z7	X8	Y8	Z8	X9	Y9	Z9	X10	Y10	Z10	X11	Y11	Z11	X12	Y12	Z12	X13	Y13	Z13	X14	Y14	Z14	X15	Y15	Z15	X16	Y16	Z16	X17	Y17	Z17	X18	Y18	Z18	X19	Y19	Z19	X20	Y20	Z20	X21	Y21	Z21	X22	Y22	Z22	X23	Y23	Z23	X24	Y24	Z24	X25	Y25	Z25	X26	Y26	Z26	X27	Y27	Z27	X28	Y28	Z28	X29	Y29	Z29	X30	Y30	Z30	X31	Y31	Z31	X32	Y32	Z32	X33	Y33	Z33	X34	Y34	Z34	X35	Y35	Z35	X36	Y36	Z36	X37	Y37	Z37	X38	Y38	Z38	X39	Y39	Z39	X40	Y40	Z40	X41	Y41	Z41	X42	Y42	Z42	X43	Y43	Z43	X44	Y44	Z44	X45	Y45	Z45	X46	Y46	Z46	X47	Y47	Z47	X48	Y48	Z48	X49	Y49	Z49	X50	Y50	Z50	X51	Y51	Z51	X52	Y52	Z52	X53	Y53	Z53	X54	Y54	Z54	X55	Y55	Z55	X56	Y56	Z56	X57	Y57	Z57	X58	Y58	Z58	X59	Y59	Z59	X60	Y60	Z60	

283	2.350	-258.34036	46.50455	1552.06970	-366.47568	42.32776	1458.22156	-152.50954	53.91512	1462.42834	-346.83478	56.90924	1315.62976	-145.37712	71.53342	1357.52246	-236.68219	177.73941	1269.51611	-236.07413	-38.87772	1278.43079	-193.44069	256.13458	1263.82849	-181.10817	-128.21722	1277.83423	-103.31071	161.34532	1280.30884	-91.32356	-21.19026	1284.22510	-56.71219	146.65808	1198.98743	-242.04305	307.56854	1128.59692	-271.94687	329.82773	968.92072	-247.49350	261.29935	941.75818	-375.15359	314.49057	938.70013	-393.09570	334.25717	849.82361	-469.75879	284.05243	843.82336	-487.87616	322.53812	810.39337	-517.71851	280.45990	811.25989	-541.67279	260.31418	785.02600	-565.07434	246.48390	752.03485	-538.90515	327.40939	751.30005	-559.80847	301.68970	708.86462	-562.83563	278.44080	674.89001	-151.26646	-189.07083	1135.76453	-99.71716	-194.75720	991.35321	-87.42532	-113.68750	983.04895	-181.47249	-189.56683	921.45117	-158.73665	-225.20746	830.39392	-215.18245	-175.36774	784.48547	-215.03549	-224.57314	758.78064	-241.59966	-185.32297	745.54468	-254.68568	-164.50975	707.60614	-253.44250	-154.66125	657.66791	-235.75604	-227.30460	670.30945	-235.37627	-212.62024	631.54053	-225.78072	-179.77072	599.80847	-36.49947	55.52819	891.51843	-228.18204	213.98299	957.49042	-219.96501	-103.30956	941.47247	-198.71149	238.38756	567.84796	-242.99889	163.05772	470.42664	-186.49817	197.46745	427.90445	-193.45741	87.14365	423.95517	-145.62589	144.25247	258.97296	-24.94243	151.54364	66.83078	-44.52443	62.44098	86.38293	37.53882	95.41502	49.94641	-163.66461	128.39511	36.58524	-109.98776	85.31134	62.38251	-310.44293	-133.13574	583.32574	-379.80057	-106.31253	459.92883	-396.09283	19.24464	449.44678	-427.65720	-54.89655	275.13785	-402.82874	-76.75935	75.23878	-422.82428	10.83105	93.59021	-358.04865	-22.29312	38.52153	-547.36664	-51.57855	70.08827	-502.37079	-17.60434	81.50956																																																																																																																															
284	2.358	-265.35690	45.89300	1550.98572	-373.20279	42.16378	1457.29333	-159.46388	52.84340	1461.30396	-353.08066	57.10403	1314.84363	-151.81325	71.34265	1356.66443	-242.68962	175.98146	1268.78638	-243.16788	-38.99364	1277.52368	-199.74573	255.47733	1263.29553	-187.34715	-128.42696	1276.56763	-110.51509	160.78253	1279.50671	-98.84093	-22.45316	1283.12598	-62.41256	146.98810	1198.19116	-248.79204	305.81656	1127.31335	-278.15042	328.43726	967.06073	-254.66135	259.44391	941.21558	-381.98819	312.51712	937.43420	-400.60269	332.47058	849.37842	-476.55499	282.70233	843.76154	-494.55154	320.43320	810.20776	-524.44452	278.46628	810.25830	-548.97339	258.39883	784.63763	-571.75769	244.39430	751.69690	-546.19128	324.95404	750.71460	-568.94244	299.57355	708.70758	-569.81342	276.37830	674.13013	-158.80211	-190.40353	1133.55188	-107.35065	-196.37590	989.91260	-94.06532	-116.25194	981.87219	-189.17340	-191.38086	919.89294	-165.70316	-226.31712	829.05188	-221.76079	-176.43663	783.52380	-221.22546	-224.57246	756.49512	-248.45053	-185.46736	744.02399	-262.19171	-164.85460	706.53589	-260.30417	-155.39601	655.36676	-241.80736	-227.44295	668.33246	-241.89111	-212.67255	629.35229	-232.47534	-179.72276	597.86560	-43.18496	54.31340	891.10614	-235.38794	213.44221	956.97388	-227.02080	-103.94854	940.43292	-203.74550	237.09406	566.93433	-247.60515	161.50700	469.09525	-190.03020	197.42926	426.76642	-197.53918	86.85969	422.57162	-147.46992	144.78583	258.04703	-25.77792	151.19536	67.66576	-45.06937	62.95773	86.90723	37.10328	95.09842	51.04367	-163.95558	128.89961	35.97247	-110.21955	85.14506	62.84196	-317.15488	-133.90999	581.70642	-387.13046	-106.35374	458.66376	-403.35004	19.57387	449.41443	-437.74390	-55.66523	274.88901	-416.31451	-76.88234	74.74787	-435.17935	10.42713	93.39582	-370.56073	-22.32391	38.32426	-560.57043	-53.42590	70.43609	-515.59198	-18.48778	81.87906																																																																																																																															
285	2.367	-271.68884	45.02018	1550.09595	-379.39728	42.11002	1456.99927	-165.72810	52.53242	1460.85730	-359.96451	55.25792	1313.52258	-158.63765	70.20042	1355.71851	-249.19096	175.18427	1267.76282	-249.69347	-40.21685	1276.47888	-206.25479	254.87312	1262.82800	-194.74431	-130.38739	1275.43982	-116.93890	159.70625	1278.01721	-105.68632	-23.53382	1282.14929	-69.93675	145.97362	1196.95264	-255.51428	304.90558	1126.06689	-284.92609	327.32574	965.64258	-260.43506	259.07224	939.48981	-388.76871	311.21640	936.41211	-406.58954	331.04019	848.14111	-482.96255	280.57294	842.67310	-501.42947	318.79053	809.54932	-531.21033	275.98730	809.94727	-555.10846	256.52908	784.17896	-579.03632	241.78564	751.15991	-552.85645	322.57959	750.57172	-573.68488	296.50192	708.34937	-577.26166	273.97220	673.98145	-165.77963	-191.92485	1132.27747	-114.59779	-197.31682	988.63696	-101.46878	-116.20169	980.58209	-195.81615	-191.52745	918.27179	-172.79326	-226.30612	827.61108	-228.37186	-176.60732	781.59674	-228.82945	-224.80124	755.30432	-254.95013	-185.28070	742.60907	-267.61588	-164.99350	704.78864	-265.08188	-152.83717	653.85663	-248.04446	-227.96883	666.30786	-248.15862	-212.40811	627.77960	-237.51038	-179.81888	596.06079	-50.60068	53.29397	890.12256	-243.13278	212.99168	955.72632	-234.19162	-105.94041	938.88324	-206.72205	236.88802	565.61041	-251.46030	163.02568	468.37299	-193.02713	197.98602	426.52234	-201.75256	87.67530	421.81458	-149.46243	145.13339	258.28448	-24.78059	151.58212	69.74334	-45.21215	62.23182	87.18201	36.61128	93.85923	53.55852	-163.91620	128.26430	36.55518	-110.61327	85.29003	62.84080	-323.50403	-133.77440	580.70526	-393.69720	-106.32603	457.58984	-411.13882	19.39409	449.11459	-447.02405	-55.65897	274.74091	-427.06018	-77.75488	74.79600	-446.76022	9.62929	93.68870	-382.83444	-24.03923	37.57429	-572.59180	-54.39196	71.40791	-526.94318	-17.80984	82.83691																																																																																																																															
286	2.375	-277.93188	44.33453	1549.20972	-386.15369	41.60406	1456.53235	-172.16956	52.73315	1460.16492	-366.68771	55.22146	1312.62170	-164.72322	68.06166	1354.79004	-255.70027	174.39964	1266.58496	-256.24133	-40.97244	1275.41089	-212.39844	254.03986	1260.73547	-201.45647	-131.95656	1274.59912	-122.94126	158.27824	1277.17529	-111.82203	-25.13653	1281.11011	-76.33656	144.48511	1196.05896	-262.58102	303.79440	1124.75598	-290.68201	325.87366	964.98413	-266.44754	257.63046	938.95490	-394.78952	310.03775	935.14679	-413.07211	328.76495	846.66302	-489.58997	278.25998	841.70703	-507.03662	316.37485	808.41760	-537.29041	273.87796	809.25763	-562.03149	254.16144	783.39673	-584.86975	240.01558	750.46661	-559.71179	320.51648	749.80103	-579.90027	294.27768	707.54871	-584.17480	271.65656	673.59174	-173.90947	-193.19626	1131.43994	-122.21643	-198.37105	987.10736	-108.88989	-117.76591	979.42371	-203.04414	-193.04251	917.25421	-180.07201	-227.35968	826.51978	-235.00417	-179.08626	780.70465	-235.75032	-226.35201	753.86371	-262.00616	-186.10464	740.90637	-274.92776	-165.87442	703.32690	-271.61563	-153.72212	653.30768	-254.81844	-226.93585	664.77551	-255.03975	-212.19386	625.84619	-243.75316	-178.74266	594.59595	-57.59729	51.47141	888.84265	-249.49696	210.86497	954.55170	-241.26364	-106.58696	937.89099	-210.36894	237.28654	564.78674	-255.17911	163.88445	466.52197	-197.66423	197.61226	425.74292	-205.36594	87.08113	421.02124	-151.61404	145.10240	257.91220	-26.00426	152.08308	69.87669	-45.98650	62.12667	87.79657	36.41743	95.31064	54.28240	-163.83730	128.20081	36.42921	-111.03839	85.47939	63.05275	-329.98392	-133.17035	579.35968	-400.84680	-106.77605	457.06329	-418.73749	18.90873	448.44540	-455.40005	-56.91566	274.67566	-437.95801	-78.08672	74.23895	-457.74335	10.49042	94.15965	-394.12024	-23.42133	37.13671	-583.02094	-54.35753	71.94611	-537.21619	-19.09519	83.63632																																																																																																																															
